<svg width="34" height="42" viewBox="0 0 34 42" fill="none" xmlns="http://www.w3.org/2000/svg">
<path d="M0 35.6469V31.4532H4.13486V16.775C4.13486 13.8743 4.99629 11.3057 6.71915 9.069C8.44201 6.79738 10.6817 5.31209 13.4383 4.61313V3.14532C13.4383 2.27162 13.7312 1.53771 14.317 0.943593C14.9372 0.314531 15.678 0 16.5394 0C17.4009 0 18.1245 0.314531 18.7102 0.943593C19.3305 1.53771 19.6406 2.27162 19.6406 3.14532V4.61313C22.3972 5.31209 24.6369 6.79738 26.3597 9.069C28.0826 11.3057 28.944 13.8743 28.944 16.775V31.4532H33.0789V35.6469H0ZM16.5394 41.9376C15.4024 41.9376 14.4203 41.5357 13.5934 40.7319C12.8008 39.8931 12.4046 38.8971 12.4046 37.7438H20.6743C20.6743 38.8971 20.2608 39.8931 19.4338 40.7319C18.6413 41.5357 17.6765 41.9376 16.5394 41.9376ZM8.26972 31.4532H24.8092V16.775C24.8092 14.4685 23.9994 12.4939 22.3799 10.8513C20.7604 9.20879 18.8136 8.38751 16.5394 8.38751C14.2653 8.38751 12.3184 9.20879 10.699 10.8513C9.07946 12.4939 8.26972 14.4685 8.26972 16.775V31.4532Z" fill="#1D1B20"/>
</svg>
