<svg width="34" height="34" viewBox="0 0 34 34" fill="none" xmlns="http://www.w3.org/2000/svg">
<path d="M16.5394 16.775C14.2653 16.775 12.3184 15.9538 10.699 14.3112C9.07946 12.6686 8.26972 10.6941 8.26972 8.38752C8.26972 6.08095 9.07946 4.10639 10.699 2.46383C12.3184 0.821278 14.2653 0 16.5394 0C18.8136 0 20.7604 0.821278 22.3799 2.46383C23.9994 4.10639 24.8092 6.08095 24.8092 8.38752C24.8092 10.6941 23.9994 12.6686 22.3799 14.3112C20.7604 15.9538 18.8136 16.775 16.5394 16.775ZM0 33.5501V27.6788C0 26.4906 0.3015 25.3984 0.904501 24.4024C1.5075 23.4064 2.30863 22.6463 3.30789 22.1221C5.44423 21.0387 7.61503 20.2261 9.82029 19.6845C12.0256 19.1428 14.2653 18.8719 16.5394 18.8719C18.8136 18.8719 21.0533 19.1428 23.2586 19.6845C25.4638 20.2261 27.6346 21.0387 29.771 22.1221C30.7703 22.6463 31.5714 23.4064 32.1744 24.4024C32.7774 25.3984 33.0789 26.4906 33.0789 27.6788V33.5501H0ZM4.13486 29.3563H28.944V27.6788C28.944 27.2944 28.8493 26.9449 28.6597 26.6304C28.4702 26.3158 28.2204 26.0712 27.9103 25.8965C26.0496 24.9529 24.1717 24.2452 22.2766 23.7734C20.3814 23.3016 18.469 23.0657 16.5394 23.0657C14.6098 23.0657 12.6975 23.3016 10.8023 23.7734C8.90718 24.2452 7.02926 24.9529 5.16858 25.8965C4.85846 26.0712 4.60865 26.3158 4.41913 26.6304C4.22962 26.9449 4.13486 27.2944 4.13486 27.6788V29.3563ZM16.5394 12.5813C17.6765 12.5813 18.6499 12.1706 19.4597 11.3494C20.2694 10.5281 20.6743 9.5408 20.6743 8.38752C20.6743 7.23423 20.2694 6.24695 19.4597 5.42567C18.6499 4.6044 17.6765 4.19376 16.5394 4.19376C15.4024 4.19376 14.4289 4.6044 13.6192 5.42567C12.8095 6.24695 12.4046 7.23423 12.4046 8.38752C12.4046 9.5408 12.8095 10.5281 13.6192 11.3494C14.4289 12.1706 15.4024 12.5813 16.5394 12.5813Z" fill="#1D1B20"/>
</svg>
